<svg xmlns="http://www.w3.org/2000/svg" viewBox="0 0 375 812" width="375" height="812">
  <!-- Background -->
  <rect width="375" height="812" fill="#F8FAFC"/>

  <!-- Status bar (dark) -->
  <rect width="375" height="54" fill="#0B1D3A"/>
  <text x="32" y="32" fill="#FFFFFF" font-family="system-ui, sans-serif" font-size="14" font-weight="600">2:48</text>
  <!-- Dynamic island -->
  <rect x="130" y="8" width="115" height="28" rx="14" fill="#000000"/>
  <!-- Status icons -->
  <text x="340" y="32" text-anchor="end" fill="#FFFFFF" font-family="system-ui, sans-serif" font-size="12">●●● ▪ ■</text>

  <!-- App header (navy bg) -->
  <rect y="54" width="375" height="90" fill="#0B1D3A"/>
  <text x="24" y="88" fill="#94A3B8" font-family="system-ui, sans-serif" font-size="13">Good afternoon</text>
  <text x="24" y="118" fill="#FFFFFF" font-family="system-ui, sans-serif" font-size="24" font-weight="bold">Summit Plumbing</text>
  <!-- Nudgli logo icon (top right) -->
  <rect x="325" y="80" width="32" height="32" rx="8" fill="#0CBFA6"/>
  <path d="M335 98c0-3 2-5 5-6v-2l6 5-6 5v-3c-2 0-4 1-5 4v-1c0-1 0-2 0-2z" fill="white"/>

  <!-- White content area -->
  <rect y="144" width="375" height="668" rx="24" fill="#FFFFFF"/>

  <!-- Review Opportunities Card -->
  <rect x="24" y="168" width="327" height="110" rx="16" fill="#FFFFFF" stroke="#E5E7EB" stroke-width="1"/>
  <text x="40" y="196" fill="#6B7280" font-family="system-ui, sans-serif" font-size="11" font-weight="600" letter-spacing="0.5">REVIEW OPPORTUNITIES CREATED</text>
  <text x="40" y="245" fill="#0B1D3A" font-family="system-ui, sans-serif" font-size="42" font-weight="bold">12</text>
  <text x="40" y="268" fill="#6B7280" font-family="system-ui, sans-serif" font-size="12">12 this month</text>
  <!-- Badge -->
  <rect x="200" y="248" width="130" height="26" rx="13" fill="#F3F4F6"/>
  <text x="265" y="265" text-anchor="middle" fill="#374151" font-family="system-ui, sans-serif" font-size="11">↑ 20% vs last month</text>

  <!-- Stats row -->
  <rect x="24" y="300" width="105" height="100" rx="14" fill="#FFFFFF" stroke="#E5E7EB" stroke-width="1"/>
  <!-- Positive icon -->
  <circle cx="52" cy="326" r="14" fill="#E6F9F6"/>
  <path d="M46 326l4 4 8-8" stroke="#0CBFA6" stroke-width="2" fill="none" stroke-linecap="round"/>
  <text x="40" y="362" fill="#0B1D3A" font-family="system-ui, sans-serif" font-size="24" font-weight="bold">8</text>
  <text x="40" y="383" fill="#6B7280" font-family="system-ui, sans-serif" font-size="10">Positive</text>
  <text x="40" y="395" fill="#6B7280" font-family="system-ui, sans-serif" font-size="10">Responses</text>

  <rect x="141" y="300" width="105" height="100" rx="14" fill="#FFFFFF" stroke="#E5E7EB" stroke-width="1"/>
  <!-- Needs Attention icon -->
  <circle cx="169" cy="326" r="14" fill="#FEF3C7"/>
  <text x="169" y="331" text-anchor="middle" fill="#F59E0B" font-family="system-ui, sans-serif" font-size="14" font-weight="bold">!</text>
  <text x="157" y="362" fill="#0B1D3A" font-family="system-ui, sans-serif" font-size="24" font-weight="bold">1</text>
  <text x="157" y="383" fill="#6B7280" font-family="system-ui, sans-serif" font-size="10">Needs</text>
  <text x="157" y="395" fill="#6B7280" font-family="system-ui, sans-serif" font-size="10">Attention</text>

  <rect x="258" y="300" width="105" height="100" rx="14" fill="#FFFFFF" stroke="#E5E7EB" stroke-width="1"/>
  <!-- Response Rate icon -->
  <circle cx="286" cy="326" r="14" fill="#EDE9FE"/>
  <path d="M280 330l4-8 4 4 4-6" stroke="#7C3AED" stroke-width="2" fill="none" stroke-linecap="round"/>
  <text x="274" y="362" fill="#0B1D3A" font-family="system-ui, sans-serif" font-size="24" font-weight="bold">67%</text>
  <text x="274" y="383" fill="#6B7280" font-family="system-ui, sans-serif" font-size="10">Response</text>
  <text x="274" y="395" fill="#6B7280" font-family="system-ui, sans-serif" font-size="10">Rate</text>

  <!-- Send Review Request Button -->
  <rect x="24" y="424" width="327" height="52" rx="14" fill="#0CBFA6"/>
  <text x="187" y="455" text-anchor="middle" fill="#FFFFFF" font-family="system-ui, sans-serif" font-size="16" font-weight="600">+ Send Review Request</text>

  <!-- Recent Activity heading -->
  <text x="24" y="516" fill="#0B1D3A" font-family="system-ui, sans-serif" font-size="18" font-weight="bold">Recent Activity</text>

  <!-- Activity item 1 -->
  <rect x="24" y="534" width="327" height="64" rx="12" fill="#F8FAFC" stroke="#E5E7EB" stroke-width="0.5"/>
  <circle cx="52" cy="566" r="14" fill="#E6F9F6"/>
  <text x="52" y="571" text-anchor="middle" fill="#0CBFA6" font-family="system-ui, sans-serif" font-size="13" font-weight="bold">5</text>
  <text x="78" y="560" fill="#0B1D3A" font-family="system-ui, sans-serif" font-size="13" font-weight="500">John D. left a 5-star rating</text>
  <text x="78" y="578" fill="#9CA3AF" font-family="system-ui, sans-serif" font-size="11">2 minutes ago</text>

  <!-- Activity item 2 -->
  <rect x="24" y="606" width="327" height="64" rx="12" fill="#F8FAFC" stroke="#E5E7EB" stroke-width="0.5"/>
  <circle cx="52" cy="638" r="14" fill="#E6F9F6"/>
  <text x="52" y="643" text-anchor="middle" fill="#0CBFA6" font-family="system-ui, sans-serif" font-size="13" font-weight="bold">5</text>
  <text x="78" y="632" fill="#0B1D3A" font-family="system-ui, sans-serif" font-size="13" font-weight="500">Sarah M. left a 5-star rating</text>
  <text x="78" y="650" fill="#9CA3AF" font-family="system-ui, sans-serif" font-size="11">15 minutes ago</text>

  <!-- Activity item 3 -->
  <rect x="24" y="678" width="327" height="64" rx="12" fill="#F8FAFC" stroke="#E5E7EB" stroke-width="0.5"/>
  <circle cx="52" cy="710" r="14" fill="#FEF2F2"/>
  <text x="52" y="715" text-anchor="middle" fill="#EF4444" font-family="system-ui, sans-serif" font-size="13" font-weight="bold">2</text>
  <text x="78" y="704" fill="#0B1D3A" font-family="system-ui, sans-serif" font-size="13" font-weight="500">Mike R. needs attention</text>
  <text x="78" y="722" fill="#9CA3AF" font-family="system-ui, sans-serif" font-size="11">1 hour ago</text>

  <!-- Bottom tab bar -->
  <rect y="762" width="375" height="50" fill="#FFFFFF" stroke="#E5E7EB" stroke-width="1"/>
  <!-- Home tab (active) -->
  <text x="65" y="790" text-anchor="middle" fill="#0CBFA6" font-family="system-ui, sans-serif" font-size="10" font-weight="500">Home</text>
  <!-- Inbox tab -->
  <text x="187" y="790" text-anchor="middle" fill="#9CA3AF" font-family="system-ui, sans-serif" font-size="10">Inbox</text>
  <!-- Settings tab -->
  <text x="310" y="790" text-anchor="middle" fill="#9CA3AF" font-family="system-ui, sans-serif" font-size="10">Settings</text>
</svg>
